{"title":"30 Mins Or Less R5 CAM AUDiO XViD -U.S.M","uid":6771404,"size":1277540527,"categoryP":"video","categoryS":"movies","magnet":"?xt=urn:btih:81044e5259bf19d01edf3a14ad4af3e9e0eb8aa8&amp;dn=30+Mins+Or+Less+R5+CAM+AUDiO+XViD+-U.S.M&amp;tr=udp%3A%2F%2Ftracker.openbittorrent.com%3A80&amp;tr=udp%3A%2F%2Fopen.demonii.com%3A1337&amp;tr=udp%3A%2F%2Ftracker.coppersurfer.tk%3A6969&amp;tr=udp%3A%2F%2Fexodus.desync.com%3A6969","seeders":0,"leechers":1,"uploader":"LegendET","files":3,"time":1319587105,"description":"[img]http://iv.pl/images/31012406412292676602.jpg[/img]\n\n[code]\nUUUUUUUU     UUUUUUUU           SSSSSSSSSSSSSSS         MMMMMMMM               MMMMMMMM     \nU::::::U     U::::::U         SS:::::::::::::::S        M:::::::M             M:::::::M     \nU::::::U     U::::::U        S:::::SSSSSS::::::S        M::::::::M           M::::::::M     \nUU:::::U     U:::::UU        S:::::S     SSSSSSS        M:::::::::M         M:::::::::M     \nU:::::U     U:::::U         S:::::S                    M::::::::::M       M::::::::::M     \nU::::     D:::::U         S:::::S                    M:::::::::::M     M:::::::::::M     \nU::::     D:::::U          S::::SSSS                 M:::::::M::::M   M::::M:::::::M     \nU::::     D:::::U           SS::::::SSSSS            M::::::M M::::M M::::M M::::::M     \nU::::     D:::::U             SSS::::::::SS          M::::::M  M::::M::::M  M::::::M     \nU::::     D:::::U                SSSSSS::::S         M::::::M   M:::::::M   M::::::M     \nU::::     D:::::U                     S:::::S        M::::::M    M:::::M    M::::::M     \nU::::::U   U::::::U                     S:::::S        M::::::M     MMMMM     M::::::M     \nU:::::::UUU:::::::U         SSSSSSS     S:::::S        M::::::M               M::::::M     \n UU:::::::::::::UU   ...... S::::::SSSSSS:::::S ...... M::::::M               M::::::M     \n   UU:::::::::UU     .::::. S:::::::::::::::SS  .::::. M::::::M               M::::::M     \n     UUUUUUUUU       ......  SSSSSSSSSSSSSSS    ...... MMMMMMMM               MMMMMMMM   \n[/code]\n\n 30 Mins Or Less R5 CAM AUDiO XViD - U.S.M\n\n\nSOURCES:\n\nUspet.za.30.minut.2011.D.DVDRip\nILLUMINATI for audio.\n\nIMDB:\n &lt;a href=&quot;\nhttp://www.imdb.com/title/tt1622547/&quot; rel=&quot;nofollow&quot; target=&quot;_NEW&quot;&gt;\nhttp://www.imdb.com/title/tt1622547/&lt;/a&gt;\n\nVideo\nID                               : 0\nFormat                           : MPEG-4 Visual\nFormat profile                   : Advanced Simple@L5\nFormat settings, BVOP            : 2\nFormat settings, QPel            : No\nFormat settings, GMC             : No warppoints\nFormat settings, Matrix          : Custom\nCodec ID                         : XVID\nCodec ID/Hint                    : XviD\nDuration                         : 1h 19mn\nBit rate                         : 2 000 Kbps\nWidth                            : 720 pixels\nHeight                           : 304 pixels\nDisplay aspect ratio             : 2.35:1\nFrame rate                       : 25.000 fps\nColor space                      : YUV\nChroma subsampling               : 4:2:0\nBit depth                        : 8 bits\nScan type                        : Progressive\nCompression mode                 : Lossy\nBits/(Pixel*Frame)               : 0.365\nStream size                      : 1.11 GiB (94%)\nWriting library                  : XviD 58\n\nAudio\nID                               : 1\nFormat                           : MPEG Audio\nFormat version                   : Version 1\nFormat profile                   : Layer 3\nCodec ID                         : 55\nCodec ID/Hint                    : MP3\nDuration                         : 1h 19mn\nBit rate mode                    : Constant\nBit rate                         : 128 Kbps\nChannel(s)                       : 2 channels\nSampling rate                    : 44.1 KHz\nCompression mode                 : Lossy\nStream size                      : 73.0 MiB (6%)\nAlignment                        : Split accross interleaves\nInterleave, duration             : 40 ms (1.00 video frame)\nInterleave, preload duration     : 500 ms\n\n\nWORKDONE:\n\nNo work done to video ...will wait until i get the vobs for some fine tweaking.\nAudio is full no missing mins in the middle or end now .\nAnd like i said once i have the dvd i will do a nice encode,with remastered audio...but\nfor now,here you go folks.\nCheck sample for Q.\n\nSCREENIES:\n\n[img]http://i.imgur.com/bzaDs.png[/img]\n[img]http://i.imgur.com/mITOb.png[/img]\n[img]http://i.imgur.com/ptzad.png[/img]\n[img]http://i.imgur.com/ZaSvb.png[/img]","torrent":{"xt":"urn:btih:81044e5259bf19d01edf3a14ad4af3e9e0eb8aa8","amp;dn":"30+Mins+Or+Less+R5+CAM+AUDiO+XViD+-U.S.M","amp;tr":["udp%3A%2F%2Ftracker.openbittorrent.com%3A80","udp%3A%2F%2Fopen.demonii.com%3A1337","udp%3A%2F%2Ftracker.coppersurfer.tk%3A6969","udp%3A%2F%2Fexodus.desync.com%3A6969"],"infoHash":"81044e5259bf19d01edf3a14ad4af3e9e0eb8aa8","infoHashBuffer":{"type":"Buffer","data":[129,4,78,82,89,191,25,208,30,223,58,20,173,74,243,233,224,235,138,168]},"announce":[],"urlList":[]}}